<svg version="1.1" id="Layer_1" xmlns="http://www.w3.org/2000/svg" xmlns:xlink="http://www.w3.org/1999/xlink" viewBox="0 0 512 512" xml:space="preserve" fill="#ffffff"><g id="SVGRepo_bgCarrier" stroke-width="0"></g><g id="SVGRepo_tracerCarrier" stroke-linecap="round" stroke-linejoin="round"></g><g id="SVGRepo_iconCarrier"> <polygon style="fill:#1A73E9;" points="256,12.8 12.8,170.914 256,326.4 499.2,170.914 "></polygon> <polygon style="fill:#1A73E9;" points="12.8,170.914 12.8,499.2 499.2,499.2 499.2,170.914 256,326.4 "></polygon> <polygon style="fill:#D3D7DF;" points="422.4,219.733 422.4,12.8 89.6,12.8 89.6,219.733 256,326.4 "></polygon> <g> <path style="fill:#557fd3;" d="M500.6,157.901l-65.4-43.597V0H76.8v114.304l-65.399,43.597C4.275,162.645,0,170.641,0,179.2v307.2 C0,500.54,11.46,512,25.6,512h460.8c14.14,0,25.6-11.46,25.6-25.6V179.2C512,170.641,507.725,162.645,500.6,157.901z M435.2,145.067l39.595,26.394L435.2,197.086V145.067z M102.4,25.6h307.2v188.049L256,313.037l-153.6-99.388V25.6z M76.8,145.067 v52.019l-39.595-25.617L76.8,145.067z M486.4,486.4H25.6V194.449l206.839,133.837L44.254,450.048 c-5.939,3.849-7.637,11.776-3.797,17.698c2.441,3.806,6.554,5.854,10.752,5.854c2.389,0,4.787-0.674,6.938-2.048L256,343.526 l197.854,128.026c2.15,1.374,4.548,2.048,6.938,2.048c4.198,0,8.311-2.048,10.761-5.854c3.84-5.922,2.133-13.85-3.797-17.698 L279.569,328.277L486.4,194.449V486.4z"></path> <rect x="128" y="51.2" style="fill:#557fd3;" width="256" height="25.6"></rect> <rect x="128" y="102.4" style="fill:#557fd3;" width="256" height="25.6"></rect> <rect x="128" y="153.6" style="fill:#557fd3;" width="128" height="25.6"></rect> </g> </g></svg>